REM DIRINDEX 1\2\5,1\2\6,1\2\7,1\2\8,1\3\9,1\3\10,1\3\11,1\4\12,1\4\13,1\4\14,1\4\15,1\4\16
REM DIRNAME folder01,folder02,folder03,folder04,folder05,folder06,folder07,folder08,folder09,folder10,folder11,folder12,folder13,folder14,folder15,folder16
TITLE ""
FILE "1200_2_sec02_0308_0322.mp3" MP3
  TRACK 01 AUDIO
    TITLE "0:"
    INDEX 01 00:00:00
  TRACK 02 AUDIO
    TITLE "10:cjc034_00633"
    INDEX 01 00:00:15
  TRACK 03 AUDIO
    TITLE "0:"
    INDEX 01 00:01:26
  TRACK 04 AUDIO
    TITLE "9:cjc034_00634"
    INDEX 01 00:01:28
  TRACK 05 AUDIO
    TITLE "0:"
    INDEX 01 00:02:45
  TRACK 06 AUDIO
    TITLE "10:cjc034_00635"
    INDEX 01 00:03:31
  TRACK 07 AUDIO
    TITLE "0:"
    INDEX 01 00:05:28
  TRACK 08 AUDIO
    TITLE "9:cjc034_00636"
    INDEX 01 00:05:36
  TRACK 09 AUDIO
    TITLE "0:"
    INDEX 01 00:06:61
  TRACK 10 AUDIO
    TITLE "10:cjc034_00637"
    INDEX 01 00:07:43
  TRACK 11 AUDIO
    TITLE "0:"
    INDEX 01 00:10:23
  TRACK 12 AUDIO
    TITLE "9:cjc034_00638"
    INDEX 01 00:10:31
  TRACK 13 AUDIO
    TITLE "0:"
    INDEX 01 00:11:27
  TRACK 14 AUDIO
    TITLE "10:cjc034_00639"
    INDEX 01 00:12:16
  TRACK 15 AUDIO
    TITLE "0:"
    INDEX 01 00:13:57
  TRACK 16 AUDIO
    TITLE "9:cjc034_00640"
    INDEX 01 00:13:59
  TRACK 17 AUDIO
    TITLE "0:"
    INDEX 01 00:15:13
  TRACK 18 AUDIO
    TITLE "10:cjc034_00641"
    INDEX 01 00:15:72
  TRACK 19 AUDIO
    TITLE "0:"
    INDEX 01 00:17:14
  TRACK 20 AUDIO
    TITLE "9:cjc034_00642"
    INDEX 01 00:17:18
  TRACK 21 AUDIO
    TITLE "0:"
    INDEX 01 00:18:35
  TRACK 22 AUDIO
    TITLE "10:cjc034_00643"
    INDEX 01 00:19:18
  TRACK 23 AUDIO
    TITLE "0:"
    INDEX 01 00:20:34
  TRACK 24 AUDIO
    TITLE "9:cjc034_00644"
    INDEX 01 00:20:43
  TRACK 25 AUDIO
    TITLE "0:"
    INDEX 01 00:21:62
  TRACK 26 AUDIO
    TITLE "10:cjc034_00645"
    INDEX 01 00:22:46
  TRACK 27 AUDIO
    TITLE "0:"
    INDEX 01 00:23:44
  TRACK 28 AUDIO
    TITLE "9:cjc034_00646"
    INDEX 01 00:23:48
  TRACK 29 AUDIO
    TITLE "0:"
    INDEX 01 00:24:65
  TRACK 30 AUDIO
    TITLE "10:cjc034_00647"
    INDEX 01 00:25:45
  TRACK 31 AUDIO
    TITLE "0:"
    INDEX 01 00:26:64
  TRACK 32 AUDIO
    TITLE "9:cjc034_00648"
    INDEX 01 00:26:69
  TRACK 33 AUDIO
    TITLE "0:"
    INDEX 01 00:28:31
  TRACK 34 AUDIO
    TITLE "10:cjc034_00649"
    INDEX 01 00:29:17
  TRACK 35 AUDIO
    TITLE "0:"
    INDEX 01 00:31:51
  TRACK 36 AUDIO
    TITLE "9:cjc034_00650"
    INDEX 01 00:31:55
  TRACK 37 AUDIO
    TITLE "0:"
    INDEX 01 00:33:01
  TRACK 38 AUDIO
    TITLE "10:cjc034_00651"
    INDEX 01 00:33:58
  TRACK 39 AUDIO
    TITLE "0:"
    INDEX 01 00:35:72
  TRACK 40 AUDIO
    TITLE "9:cjc034_00652"
    INDEX 01 00:35:74
  TRACK 41 AUDIO
    TITLE "0:"
    INDEX 01 00:37:01
  TRACK 42 AUDIO
    TITLE "10:cjc034_00653"
    INDEX 01 00:37:57
  TRACK 43 AUDIO
    TITLE "0:"
    INDEX 01 00:39:00
  TRACK 44 AUDIO
    TITLE "9:cjc034_00654"
    INDEX 01 00:39:07
  TRACK 45 AUDIO
    TITLE "0:"
    INDEX 01 00:40:44
  TRACK 46 AUDIO
    TITLE "10:cjc034_00655"
    INDEX 01 00:41:24
  TRACK 47 AUDIO
    TITLE "0:"
    INDEX 01 00:42:37
  TRACK 48 AUDIO
    TITLE "9:cjc034_00656"
    INDEX 01 00:42:39
  TRACK 49 AUDIO
    TITLE "0:"
    INDEX 01 00:44:05
  TRACK 50 AUDIO
    TITLE "10:cjc034_00657"
    INDEX 01 00:44:65
  TRACK 51 AUDIO
    TITLE "0:"
    INDEX 01 00:46:74
  TRACK 52 AUDIO
    TITLE "9:cjc034_00658"
    INDEX 01 00:47:03
  TRACK 53 AUDIO
    TITLE "0:"
    INDEX 01 00:48:04
  TRACK 54 AUDIO
    TITLE "10:cjc034_00659"
    INDEX 01 00:48:59
  TRACK 55 AUDIO
    TITLE "0:"
    INDEX 01 00:50:60
  TRACK 56 AUDIO
    TITLE "9:cjc034_00660"
    INDEX 01 00:50:62
  TRACK 57 AUDIO
    TITLE "0:"
    INDEX 01 00:52:00
  TRACK 58 AUDIO
    TITLE "10:cjc034_00661"
    INDEX 01 00:52:57
  TRACK 59 AUDIO
    TITLE "0:"
    INDEX 01 00:53:60
  TRACK 60 AUDIO
    TITLE "9:cjc034_00662"
    INDEX 01 00:53:62
  TRACK 61 AUDIO
    TITLE "0:"
    INDEX 01 00:54:72
